<svg xmlns="http://www.w3.org/2000/svg" width="32" height="32" viewBox="0 0 24 24" fill="none" stroke-width="2" stroke-linecap="round" stroke-linejoin="round">
  <defs>
    <linearGradient id="blue-gradient" x1="0%" y1="0%" x2="100%" y2="100%">
      <stop offset="0%" stop-color="#2196F3" />  <stop offset="100%" stop-color="#0D47A1" /> </linearGradient>
  </defs>
  <path d="m12.83 2.18a2 2 0 0 0-1.66 0L2.6 6.08a1 1 0 0 0 0 1.83l8.58 3.91a2 2 0 0 0 1.66 0l8.58-3.9a1 1 0 0 0 0-1.83Z" stroke="url(#blue-gradient)"/>
  <path d="m22 17.65-9.17 4.16a2 2 0 0 1-1.66 0L2 17.65" stroke="url(#blue-gradient)"/>
  <path d="m22 12.65-9.17 4.16a2 2 0 0 1-1.66 0L2 12.65" stroke="url(#blue-gradient)"/>
</svg>