<svg xmlns="http://www.w3.org/2000/svg" xmlns:xlink="http://www.w3.org/1999/xlink" width="1024" zoomAndPan="magnify" viewBox="0 0 768 767.999994" height="1024" preserveAspectRatio="xMidYMid meet" version="1.0"><path stroke-linecap="round" transform="matrix(32.000001, 0, 0, 32.000001, 0.000003, 0.00002)" fill="none" stroke-linejoin="round" d="M 12.829956 2.180053 C 12.765014 2.15039 12.69873 2.124267 12.630981 2.101806 C 12.563232 2.079223 12.494506 2.060424 12.424682 2.045287 C 12.35498 2.030151 12.284545 2.018676 12.213623 2.011108 C 12.142578 2.003417 12.071411 1.999633 12 1.999633 C 11.928588 1.999633 11.857421 2.003417 11.786376 2.011108 C 11.715454 2.018676 11.645019 2.030151 11.575317 2.045287 C 11.505493 2.060424 11.436767 2.079223 11.369018 2.101806 C 11.301269 2.124267 11.234985 2.15039 11.170044 2.180053 L 2.599975 6.079955 C 2.555908 6.099486 2.513428 6.121947 2.472534 6.147582 C 2.43164 6.173217 2.392822 6.201659 2.356079 6.232787 C 2.319336 6.264037 2.285034 6.297729 2.253052 6.333984 C 2.221191 6.370116 2.192139 6.408446 2.165771 6.448852 C 2.139404 6.489257 2.116089 6.531371 2.095825 6.575072 C 2.075683 6.618896 2.058594 6.66394 2.044922 6.710082 C 2.031128 6.756347 2.020752 6.803344 2.013916 6.851073 C 2.006958 6.898803 2.003418 6.946777 2.003418 6.994994 C 2.003418 7.043212 2.006958 7.091186 2.013916 7.138915 C 2.020752 7.186645 2.031128 7.233642 2.044922 7.279906 C 2.058594 7.326049 2.075683 7.371093 2.095825 7.414916 C 2.116089 7.458617 2.139404 7.500732 2.165771 7.541137 C 2.192139 7.581542 2.221191 7.619872 2.253052 7.656005 C 2.285034 7.69226 2.319336 7.725951 2.356079 7.757201 C 2.392822 7.788329 2.43164 7.816772 2.472534 7.842406 C 2.513428 7.868041 2.555908 7.890502 2.599975 7.910033 L 11.180053 11.819945 C 11.244995 11.849608 11.311279 11.875731 11.379028 11.898192 C 11.446777 11.920775 11.515502 11.939574 11.585327 11.954711 C 11.655029 11.969848 11.725463 11.981322 11.796386 11.988891 C 11.867431 11.996581 11.938598 12.000365 12.010009 12.000365 C 12.08142 12.000365 12.152587 11.996581 12.22351 11.988891 C 12.294555 11.981322 12.364868 11.969848 12.434692 11.954711 C 12.504394 11.939574 12.573242 11.920775 12.640991 11.898192 C 12.70874 11.875731 12.775024 11.849608 12.839965 11.819945 L 21.420043 7.920043 C 21.464111 7.900512 21.506591 7.878051 21.547485 7.852416 C 21.588378 7.826781 21.627197 7.798339 21.66394 7.767211 C 21.700683 7.735961 21.734985 7.70227 21.766967 7.666015 C 21.798827 7.629882 21.82788 7.591552 21.854247 7.551147 C 21.880614 7.510741 21.90393 7.468627 21.924072 7.424926 C 21.944335 7.381103 21.961425 7.336059 21.975097 7.289916 C 21.988891 7.243651 21.999145 7.196654 22.006103 7.148925 C 22.013061 7.101195 22.016601 7.053222 22.016601 7.005004 C 22.016601 6.956786 22.013061 6.908813 22.006103 6.861083 C 21.999145 6.813354 21.988891 6.766357 21.975097 6.720092 C 21.961425 6.673949 21.944335 6.628905 21.924072 6.585082 C 21.90393 6.541381 21.880614 6.499267 21.854247 6.458861 C 21.82788 6.418456 21.798827 6.380126 21.766845 6.343993 C 21.734985 6.307738 21.700683 6.274047 21.66394 6.242797 C 21.627197 6.211669 21.588378 6.183227 21.547485 6.157592 C 21.506591 6.131957 21.464111 6.109496 21.420043 6.089965 Z M 12.829956 2.180053 " stroke="#1c9259" stroke-width="2" stroke-opacity="1" stroke-miterlimit="4"/><path stroke-linecap="round" transform="matrix(32.000001, 0, 0, 32.000001, 0.000003, 0.00002)" fill="none" stroke-linejoin="round" d="M 21.999999 17.650023 L 12.829956 21.810057 C 12.765014 21.839598 12.69873 21.865721 12.630981 21.888182 C 12.563232 21.910765 12.494506 21.929564 12.424682 21.944701 C 12.35498 21.95996 12.284545 21.971312 12.213623 21.978881 C 12.142578 21.986571 12.071411 21.990355 12 21.990355 C 11.928588 21.990355 11.857421 21.986571 11.786376 21.978881 C 11.715454 21.971312 11.645019 21.95996 11.575317 21.944701 C 11.505493 21.929564 11.436767 21.910765 11.369018 21.888182 C 11.301269 21.865721 11.234985 21.839598 11.170044 21.810057 L 2 17.650023 " stroke="#1c9259" stroke-width="2" stroke-opacity="1" stroke-miterlimit="4"/><path stroke-linecap="round" transform="matrix(32.000001, 0, 0, 32.000001, 0.000003, 0.00002)" fill="none" stroke-linejoin="round" d="M 21.999999 12.650023 L 12.829956 16.810057 C 12.765014 16.839598 12.69873 16.865722 12.630981 16.888182 C 12.563232 16.910765 12.494506 16.929564 12.424682 16.944701 C 12.35498 16.95996 12.284545 16.971312 12.213623 16.978881 C 12.142578 16.986571 12.071411 16.990355 12 16.990355 C 11.928588 16.990355 11.857421 16.986571 11.786376 16.978881 C 11.715454 16.971312 11.645019 16.95996 11.575317 16.944701 C 11.505493 16.929564 11.436767 16.910765 11.369018 16.888182 C 11.301269 16.865722 11.234985 16.839598 11.170044 16.810057 L 2 12.650023 " stroke="#1c9259" stroke-width="2" stroke-opacity="1" stroke-miterlimit="4"/></svg>